<mxfile host="65bd71144e">
    <diagram id="07A_bCQUbJkKT-pQfhuE" name="Page-1">
        <mxGraphModel dx="949" dy="660" grid="1" gridSize="10" guides="1" tooltips="1" connect="1" arrows="1" fold="1" page="1" pageScale="1" pageWidth="1169" pageHeight="827" math="0" shadow="0">
            <root>
                <mxCell id="0"/>
                <mxCell id="1" parent="0"/>
                <mxCell id="116" value="" style="rounded=0;whiteSpace=wrap;html=1;fillColor=default;gradientColor=none;" parent="1" vertex="1">
                    <mxGeometry x="80" y="100" width="960" height="470" as="geometry"/>
                </mxCell>
                <mxCell id="69" value="Tests" style="shape=umlFrame;whiteSpace=wrap;html=1;width=100;height=20;boundedLbl=1;verticalAlign=middle;align=left;spacingLeft=5;fillColor=none;rounded=1;" parent="1" vertex="1">
                    <mxGeometry x="80" y="100" width="960" height="470" as="geometry"/>
                </mxCell>
                <mxCell id="70" value="Google Chrome" style="shape=umlFrame;whiteSpace=wrap;html=1;width=110;height=20;boundedLbl=1;verticalAlign=middle;align=left;spacingLeft=5;fillColor=none;rounded=1;" parent="1" vertex="1">
                    <mxGeometry x="100" y="235" width="340" height="200" as="geometry"/>
                </mxCell>
                <mxCell id="72" value="tecDigital" style="shape=umlFrame;whiteSpace=wrap;html=1;width=110;height=20;boundedLbl=1;verticalAlign=middle;align=left;spacingLeft=5;fillColor=none;rounded=1;" parent="1" vertex="1">
                    <mxGeometry x="460" y="120" width="560" height="430" as="geometry"/>
                </mxCell>
                <mxCell id="73" value="Buscar &quot;wall·e&quot;" style="ellipse;whiteSpace=wrap;html=1;fillColor=none;" parent="1" vertex="1">
                    <mxGeometry x="280" y="260" width="140" height="50" as="geometry"/>
                </mxCell>
                <mxCell id="74" value="search.robot" style="shape=umlActor;verticalLabelPosition=bottom;verticalAlign=top;html=1;outlineConnect=0;rounded=1;fillColor=none;" parent="1" vertex="1">
                    <mxGeometry x="140" y="305" width="30" height="60" as="geometry"/>
                </mxCell>
                <mxCell id="76" value="" style="endArrow=classic;html=1;" parent="1" source="74" target="73" edge="1">
                    <mxGeometry width="50" height="50" relative="1" as="geometry">
                        <mxPoint x="280" y="395" as="sourcePoint"/>
                        <mxPoint x="205.79142022433734" y="363.94809032363037" as="targetPoint"/>
                    </mxGeometry>
                </mxCell>
                <mxCell id="77" value="Buscar fotos del&lt;br&gt;TEC cartago" style="ellipse;whiteSpace=wrap;html=1;fillColor=none;" parent="1" vertex="1">
                    <mxGeometry x="280" y="365" width="140" height="50" as="geometry"/>
                </mxCell>
                <mxCell id="78" value="" style="endArrow=classic;html=1;" parent="1" source="74" target="77" edge="1">
                    <mxGeometry width="50" height="50" relative="1" as="geometry">
                        <mxPoint x="530" y="310" as="sourcePoint"/>
                        <mxPoint x="390" y="310" as="targetPoint"/>
                    </mxGeometry>
                </mxCell>
                <mxCell id="79" value="access.robot" style="shape=umlActor;verticalLabelPosition=bottom;verticalAlign=top;html=1;outlineConnect=0;rounded=1;fillColor=none;" parent="1" vertex="1">
                    <mxGeometry x="669" y="150" width="30" height="60" as="geometry"/>
                </mxCell>
                <mxCell id="80" value="email.robot" style="shape=umlActor;verticalLabelPosition=bottom;verticalAlign=top;html=1;outlineConnect=0;rounded=1;fillColor=none;" parent="1" vertex="1">
                    <mxGeometry x="550" y="365" width="30" height="60" as="geometry"/>
                </mxCell>
                <mxCell id="81" value="Iniciar sesión" style="ellipse;whiteSpace=wrap;html=1;fillColor=none;" parent="1" vertex="1">
                    <mxGeometry x="630" y="260" width="110" height="50" as="geometry"/>
                </mxCell>
                <mxCell id="82" value="Cerrar sesión" style="ellipse;whiteSpace=wrap;html=1;fillColor=none;" parent="1" vertex="1">
                    <mxGeometry x="490" y="200" width="110" height="50" as="geometry"/>
                </mxCell>
                <mxCell id="86" value="Enviar un correo&lt;br&gt;a la profesora" style="ellipse;whiteSpace=wrap;html=1;fillColor=none;" parent="1" vertex="1">
                    <mxGeometry x="624" y="370" width="120" height="50" as="geometry"/>
                </mxCell>
                <mxCell id="87" value="Desplegar cursos" style="ellipse;whiteSpace=wrap;html=1;fillColor=none;" parent="1" vertex="1">
                    <mxGeometry x="790" y="134" width="116" height="50" as="geometry"/>
                </mxCell>
                <mxCell id="88" value="Acceder al&lt;br&gt;formulario para enviar&lt;br&gt;un correo" style="ellipse;whiteSpace=wrap;html=1;fillColor=none;" parent="1" vertex="1">
                    <mxGeometry x="790" y="315" width="150" height="50" as="geometry"/>
                </mxCell>
                <mxCell id="89" value="" style="endArrow=classic;html=1;" parent="1" source="80" target="86" edge="1">
                    <mxGeometry width="50" height="50" relative="1" as="geometry">
                        <mxPoint x="770" y="410" as="sourcePoint"/>
                        <mxPoint x="820" y="360" as="targetPoint"/>
                    </mxGeometry>
                </mxCell>
                <mxCell id="91" value="Completar campos" style="ellipse;whiteSpace=wrap;html=1;fillColor=none;" parent="1" vertex="1">
                    <mxGeometry x="884" y="410" width="125" height="50" as="geometry"/>
                </mxCell>
                <mxCell id="92" value="&lt;font style=&quot;font-size: 10px&quot;&gt;&amp;lt;&amp;lt;inlusión&amp;gt;&amp;gt;&lt;/font&gt;" style="endArrow=classic;html=1;dashed=1;" parent="1" source="81" target="87" edge="1">
                    <mxGeometry x="0.0322" width="50" height="50" relative="1" as="geometry">
                        <mxPoint x="710.0000000000001" y="344.9999999999998" as="sourcePoint"/>
                        <mxPoint x="710.0000000000001" y="225.00000000000023" as="targetPoint"/>
                        <Array as="points">
                            <mxPoint x="760" y="285"/>
                            <mxPoint x="760" y="160"/>
                        </Array>
                        <mxPoint as="offset"/>
                    </mxGeometry>
                </mxCell>
                <mxCell id="93" value="Acceder al &lt;br&gt;portal del curso&lt;br&gt;SQA" style="ellipse;whiteSpace=wrap;html=1;fillColor=none;" parent="1" vertex="1">
                    <mxGeometry x="891" y="220" width="111" height="50" as="geometry"/>
                </mxCell>
                <mxCell id="98" value="&lt;font style=&quot;font-size: 10px&quot;&gt;&amp;lt;&amp;lt;inlusión&amp;gt;&amp;gt;&lt;/font&gt;" style="endArrow=classic;html=1;dashed=1;" parent="1" source="87" target="93" edge="1">
                    <mxGeometry x="0.3814" width="50" height="50" relative="1" as="geometry">
                        <mxPoint x="1090" y="80" as="sourcePoint"/>
                        <mxPoint x="1090" y="150" as="targetPoint"/>
                        <mxPoint as="offset"/>
                        <Array as="points">
                            <mxPoint x="946" y="159"/>
                        </Array>
                    </mxGeometry>
                </mxCell>
                <mxCell id="99" value="&lt;font style=&quot;font-size: 10px&quot;&gt;&amp;lt;&amp;lt;inlusión&amp;gt;&amp;gt;&lt;/font&gt;" style="endArrow=classic;html=1;dashed=1;" parent="1" source="93" target="88" edge="1">
                    <mxGeometry x="0.1549" width="50" height="50" relative="1" as="geometry">
                        <mxPoint x="1100" y="90" as="sourcePoint"/>
                        <mxPoint x="968.3336401550764" y="221.6663598449236" as="targetPoint"/>
                        <mxPoint as="offset"/>
                        <Array as="points">
                            <mxPoint x="865" y="245"/>
                        </Array>
                    </mxGeometry>
                </mxCell>
                <mxCell id="100" value="&lt;font style=&quot;font-size: 10px&quot;&gt;&amp;lt;&amp;lt;inlusión&amp;gt;&amp;gt;&lt;/font&gt;" style="endArrow=classic;html=1;dashed=1;" parent="1" source="88" target="91" edge="1">
                    <mxGeometry x="-0.2857" width="50" height="50" relative="1" as="geometry">
                        <mxPoint x="1110" y="100" as="sourcePoint"/>
                        <mxPoint x="978.3336401550764" y="231.6663598449236" as="targetPoint"/>
                        <mxPoint as="offset"/>
                        <Array as="points">
                            <mxPoint x="865" y="435"/>
                        </Array>
                    </mxGeometry>
                </mxCell>
                <mxCell id="101" value="Enviar correo" style="ellipse;whiteSpace=wrap;html=1;fillColor=none;" parent="1" vertex="1">
                    <mxGeometry x="774" y="485" width="125" height="50" as="geometry"/>
                </mxCell>
                <mxCell id="103" value="" style="endArrow=classic;html=1;dashed=1;fontSize=10;" parent="1" source="91" target="101" edge="1">
                    <mxGeometry width="50" height="50" relative="1" as="geometry">
                        <mxPoint x="830" y="440" as="sourcePoint"/>
                        <mxPoint x="880" y="390" as="targetPoint"/>
                        <Array as="points">
                            <mxPoint x="946" y="510"/>
                        </Array>
                    </mxGeometry>
                </mxCell>
                <mxCell id="104" value="&amp;lt;&amp;lt;inlusión&amp;gt;&amp;gt;" style="edgeLabel;html=1;align=center;verticalAlign=middle;resizable=0;points=[];fontSize=10;" parent="103" vertex="1" connectable="0">
                    <mxGeometry x="0.1425" y="2" relative="1" as="geometry">
                        <mxPoint x="6" y="-27" as="offset"/>
                    </mxGeometry>
                </mxCell>
                <mxCell id="107" style="edgeStyle=none;html=1;entryX=0;entryY=0;entryDx=20;entryDy=0;entryPerimeter=0;fontSize=10;endArrow=none;endFill=0;rounded=0;" parent="1" source="105" target="106" edge="1">
                    <mxGeometry relative="1" as="geometry">
                        <Array as="points">
                            <mxPoint x="505" y="470"/>
                            <mxPoint x="625" y="470"/>
                        </Array>
                    </mxGeometry>
                </mxCell>
                <mxCell id="112" value="recursos" style="edgeLabel;html=1;align=center;verticalAlign=middle;resizable=0;points=[];fontSize=10;" parent="107" vertex="1" connectable="0">
                    <mxGeometry x="0.1847" relative="1" as="geometry">
                        <mxPoint x="-13" y="10" as="offset"/>
                    </mxGeometry>
                </mxCell>
                <mxCell id="105" value="&lt;font style=&quot;font-size: 10px&quot;&gt;Keywords&lt;/font&gt;" style="shape=note;whiteSpace=wrap;html=1;backgroundOutline=1;darkOpacity=0.05;size=10;fillColor=none;" parent="1" vertex="1">
                    <mxGeometry x="480" y="480" width="50" height="60" as="geometry"/>
                </mxCell>
                <mxCell id="106" value="&lt;font style=&quot;font-size: 10px&quot;&gt;Variables&lt;/font&gt;" style="shape=note;whiteSpace=wrap;html=1;backgroundOutline=1;darkOpacity=0.05;size=10;fillColor=none;" parent="1" vertex="1">
                    <mxGeometry x="605" y="480" width="50" height="60" as="geometry"/>
                </mxCell>
                <mxCell id="108" value="" style="endArrow=classic;html=1;rounded=0;fontSize=10;dashed=1;" parent="1" source="86" target="81" edge="1">
                    <mxGeometry width="50" height="50" relative="1" as="geometry">
                        <mxPoint x="690" y="390" as="sourcePoint"/>
                        <mxPoint x="740" y="340" as="targetPoint"/>
                    </mxGeometry>
                </mxCell>
                <mxCell id="109" value="&amp;lt;&amp;lt;inlusión&amp;gt;&amp;gt;" style="edgeLabel;html=1;align=center;verticalAlign=middle;resizable=0;points=[];fontSize=10;" parent="108" vertex="1" connectable="0">
                    <mxGeometry x="-0.1257" y="-2" relative="1" as="geometry">
                        <mxPoint as="offset"/>
                    </mxGeometry>
                </mxCell>
                <mxCell id="111" value="" style="endArrow=none;html=1;rounded=0;fontSize=10;" parent="1" edge="1">
                    <mxGeometry width="50" height="50" relative="1" as="geometry">
                        <mxPoint x="565" y="470" as="sourcePoint"/>
                        <mxPoint x="564.9300000000001" y="450" as="targetPoint"/>
                    </mxGeometry>
                </mxCell>
                <mxCell id="113" value="" style="endArrow=classic;html=1;rounded=1;fontSize=10;dashed=1;" parent="1" source="81" target="82" edge="1">
                    <mxGeometry width="50" height="50" relative="1" as="geometry">
                        <mxPoint x="694.2032508659415" y="380.0001434891983" as="sourcePoint"/>
                        <mxPoint x="694.8427679383615" y="319.9998978005225" as="targetPoint"/>
                        <Array as="points">
                            <mxPoint x="545" y="285"/>
                        </Array>
                    </mxGeometry>
                </mxCell>
                <mxCell id="114" value="&amp;lt;&amp;lt;inlusión&amp;gt;&amp;gt;" style="edgeLabel;html=1;align=center;verticalAlign=middle;resizable=0;points=[];fontSize=10;" parent="113" vertex="1" connectable="0">
                    <mxGeometry x="-0.1257" y="-2" relative="1" as="geometry">
                        <mxPoint x="7" y="2" as="offset"/>
                    </mxGeometry>
                </mxCell>
                <mxCell id="115" value="" style="endArrow=classic;html=1;entryX=0.5;entryY=0;entryDx=0;entryDy=0;" parent="1" target="81" edge="1">
                    <mxGeometry width="50" height="50" relative="1" as="geometry">
                        <mxPoint x="685" y="230" as="sourcePoint"/>
                        <mxPoint x="650" y="250" as="targetPoint"/>
                    </mxGeometry>
                </mxCell>
            </root>
        </mxGraphModel>
    </diagram>
</mxfile>